<svg width="52" height="52" viewBox="0 0 52 52" fill="none" xmlns="http://www.w3.org/2000/svg">
<rect width="52" height="52" rx="12" fill="#A9C2CB"/>
<g filter="url(#filter0_d_2202_5)">
<path fill-rule="evenodd" clip-rule="evenodd" d="M16.3708 16.3708C16.7013 16.0402 17.247 15.8241 18.1012 15.8479C18.958 15.8718 20.0353 16.1389 21.2741 16.6698C22.2633 17.0938 23.3267 17.6735 24.4245 18.3944C23.3511 19.2394 22.2783 20.1908 21.2346 21.2345C20.1908 22.2783 19.2394 23.3511 18.3944 24.4245C17.6735 23.3267 17.0938 22.2633 16.6698 21.2741C16.1389 20.0354 15.8718 18.958 15.8479 18.1012C15.8241 17.247 16.0402 16.7013 16.3708 16.3708ZM22.0013 14.9729C23.2711 15.5171 24.6244 16.2795 26 17.2301C27.3757 16.2795 28.7289 15.5171 29.9987 14.973C31.3649 14.3874 32.6795 14.0351 33.8473 14.0025C35.0179 13.9698 36.1295 14.2602 36.9347 15.0653C37.7398 15.8705 38.0302 16.9821 37.9975 18.1527C37.965 19.3206 37.6126 20.6352 37.0271 22.0014C36.4829 23.2711 35.7205 24.6244 34.7699 26.0001C35.7205 27.3757 36.4828 28.7289 37.027 29.9986C37.6125 31.3648 37.9649 32.6794 37.9974 33.8473C38.0301 35.0179 37.7397 36.1295 36.9346 36.9347C36.1294 37.7398 35.0178 38.0302 33.8472 37.9975C32.6794 37.9649 31.3647 37.6126 29.9986 37.027C28.7289 36.4829 27.3756 35.7205 26 34.77C24.6244 35.7205 23.2712 36.4829 22.0014 37.0271C20.6353 37.6126 19.3206 37.965 18.1528 37.9975C16.9822 38.0302 15.8706 37.7398 15.0654 36.9347C14.2603 36.1295 13.9699 35.0179 14.0026 33.8473C14.0352 32.6795 14.3875 31.3648 14.973 29.9987C15.5172 28.7289 16.2796 27.3757 17.2301 26.0001C16.2795 24.6244 15.5171 23.2711 14.9729 22.0014C14.3874 20.6352 14.035 19.3205 14.0025 18.1527C13.9698 16.9821 14.2602 15.8705 15.0653 15.0653C15.8705 14.2602 16.9821 13.9698 18.1527 14.0025C19.3205 14.035 20.6351 14.3874 22.0013 14.9729ZM22.54 22.5399C23.681 21.399 24.8487 20.3836 26 19.5098C27.1513 20.3836 28.319 21.399 29.46 22.5399C30.601 23.6809 31.6164 24.8487 32.4902 26.0001C31.6164 27.1514 30.6011 28.3191 29.4601 29.4601C28.3191 30.6011 27.1514 31.6164 26 32.4903C24.8486 31.6164 23.6809 30.6011 22.5399 29.4601C21.399 28.3191 20.3836 27.1514 19.5098 26.0001C20.3837 24.8487 21.399 23.6809 22.54 22.5399ZM30.7654 21.2345C31.8092 22.2783 32.7606 23.3511 33.6056 24.4245C34.3265 23.3267 34.9062 22.2633 35.3302 21.2741C35.8611 20.0354 36.1282 18.958 36.1521 18.1012C36.1759 17.2471 35.9598 16.7013 35.6292 16.3708C35.2987 16.0402 34.753 15.8241 33.8988 15.8479C33.042 15.8718 31.9647 16.1389 30.7259 16.6698C29.7367 17.0938 28.6733 17.6735 27.5756 18.3944C28.6489 19.2394 29.7217 20.1908 30.7654 21.2345ZM30.7655 30.7655C31.8093 29.7218 32.7606 28.649 33.6056 27.5756C34.3264 28.6734 34.9061 29.7367 35.3301 30.7259C35.861 31.9646 36.1281 33.042 36.152 33.8988C36.1758 34.7529 35.9597 35.2987 35.6291 35.6292C35.2986 35.9598 34.7529 36.1759 33.8987 36.1521C33.0419 36.1282 31.9646 35.8611 30.7258 35.3302C29.7366 34.9062 28.6733 34.3265 27.5756 33.6056C28.6489 32.7606 29.7218 31.8093 30.7655 30.7655ZM21.2345 30.7655C22.2782 31.8093 23.3511 32.7606 24.4245 33.6056C23.3267 34.3265 22.2634 34.9062 21.2742 35.3302C20.0354 35.8611 18.9581 36.1282 18.1013 36.1521C17.2471 36.1759 16.7014 35.9598 16.3709 35.6292C16.0403 35.2987 15.8242 34.753 15.848 33.8988C15.8719 33.042 16.139 31.9646 16.6699 30.7259C17.0939 29.7367 17.6736 28.6734 18.3944 27.5756C19.2394 28.649 20.1907 29.7218 21.2345 30.7655ZM26 28.4617C27.3595 28.4617 28.4615 27.3596 28.4615 26.0002C28.4615 24.6407 27.3595 23.5386 26 23.5386C24.6405 23.5386 23.5385 24.6407 23.5385 26.0002C23.5385 27.3596 24.6405 28.4617 26 28.4617Z" fill="white"/>
</g>
<defs>
<filter id="filter0_d_2202_5" x="7" y="11" width="38" height="38" filterUnits="userSpaceOnUse" color-interpolation-filters="sRGB">
<feFlood flood-opacity="0" result="BackgroundImageFix"/>
<feColorMatrix in="SourceAlpha" type="matrix" values="0 0 0 0 0 0 0 0 0 0 0 0 0 0 0 0 0 0 127 0" result="hardAlpha"/>
<feOffset dy="4"/>
<feGaussianBlur stdDeviation="3.5"/>
<feComposite in2="hardAlpha" operator="out"/>
<feColorMatrix type="matrix" values="0 0 0 0 0.388451 0 0 0 0 0.459239 0 0 0 0 0.484722 0 0 0 0.8 0"/>
<feBlend mode="normal" in2="BackgroundImageFix" result="effect1_dropShadow_2202_5"/>
<feBlend mode="normal" in="SourceGraphic" in2="effect1_dropShadow_2202_5" result="shape"/>
</filter>
</defs>
</svg>
