<svg width="32" height="35" viewBox="0 0 32 35" fill="none" xmlns="http://www.w3.org/2000/svg">
<rect width="32" height="32" rx="12" fill="#A9C2CB"/>
<g filter="url(#filter0_d_3_285)">
<path fill-rule="evenodd" clip-rule="evenodd" d="M13.8041 9.85299C14.5013 9.65581 15.2377 9.55005 16 9.55005C16.7623 9.55005 17.4987 9.65581 18.1959 9.85299C18.5944 9.96572 19.0089 9.734 19.1217 9.33542C19.2344 8.93684 19.0027 8.52234 18.6041 8.40961C17.7754 8.17523 16.9017 8.05005 16 8.05005C15.0983 8.05005 14.2246 8.17523 13.3959 8.40961C12.9973 8.52234 12.7656 8.93684 12.8783 9.33542C12.991 9.734 13.4055 9.96572 13.8041 9.85299ZM22.8 17.2C22.8 20.9556 19.7555 24 16 24C12.2444 24 9.19998 20.9556 9.19998 17.2C9.19998 13.4445 12.2444 10.4 16 10.4C19.7555 10.4 22.8 13.4445 22.8 17.2ZM16.6 13.6C16.6 13.2687 16.3313 13 16 13C15.6686 13 15.4 13.2687 15.4 13.6V16.5606C15.0413 16.768 14.8 17.1559 14.8 17.6C14.8 18.2628 15.3372 18.8 16 18.8C16.6627 18.8 17.2 18.2628 17.2 17.6C17.2 17.1559 16.9587 16.768 16.6 16.5606V13.6Z" fill="white"/>
</g>
<defs>
<filter id="filter0_d_3_285" x="2.19998" y="5.05005" width="27.6" height="29.95" filterUnits="userSpaceOnUse" color-interpolation-filters="sRGB">
<feFlood flood-opacity="0" result="BackgroundImageFix"/>
<feColorMatrix in="SourceAlpha" type="matrix" values="0 0 0 0 0 0 0 0 0 0 0 0 0 0 0 0 0 0 127 0" result="hardAlpha"/>
<feOffset dy="4"/>
<feGaussianBlur stdDeviation="3.5"/>
<feComposite in2="hardAlpha" operator="out"/>
<feColorMatrix type="matrix" values="0 0 0 0 0.388451 0 0 0 0 0.459239 0 0 0 0 0.484722 0 0 0 0.8 0"/>
<feBlend mode="normal" in2="BackgroundImageFix" result="effect1_dropShadow_3_285"/>
<feBlend mode="normal" in="SourceGraphic" in2="effect1_dropShadow_3_285" result="shape"/>
</filter>
</defs>
</svg>
